<?xml version="1.0" standalone="no"?>
<!DOCTYPE svg PUBLIC "-//W3C//DTD SVG 20010904//EN"
 "http://www.w3.org/TR/2001/REC-SVG-20010904/DTD/svg10.dtd">
<svg version="1.0" xmlns="http://www.w3.org/2000/svg"
 width="30.000000pt" height="24.000000pt" viewBox="0 0 30.000000 24.000000"
 preserveAspectRatio="xMidYMid meet">

<g transform="translate(0.000000,24.000000) scale(0.100000,-0.100000)"
fill="#000000" stroke="none">
<path d="M142 198 c-7 -7 -12 -17 -12 -22 0 -6 7 -3 15 7 13 18 14 17 31 -7 9
-15 19 -25 21 -22 5 5 -29 55 -37 56 -4 0 -11 -5 -18 -12z"/>
<path d="M100 172 c0 -7 11 -25 25 -40 14 -15 25 -24 25 -21 0 3 -11 20 -25
39 -14 19 -25 28 -25 22z"/>
<path d="M100 103 c0 -35 -3 -42 -22 -46 -17 -3 -14 -5 10 -6 30 -1 32 1 32
32 0 17 -5 39 -10 47 -7 11 -10 4 -10 -27z"/>
<path d="M191 114 c-12 -15 -21 -33 -21 -40 0 -23 -18 -16 -23 9 -4 19 -4 18
-6 -5 -1 -22 4 -28 19 -28 13 0 20 7 20 19 0 10 6 23 13 29 10 8 13 5 12 -16
0 -19 6 -27 20 -30 14 -2 16 0 7 6 -7 5 -13 25 -14 45 -1 20 -2 37 -4 37 -1 0
-12 -12 -23 -26z"/>
</g>
</svg>
